<svg width="22" height="14" viewBox="0 0 22 14" fill="none" xmlns="http://www.w3.org/2000/svg">
<path d="M14.373 13.914C14.7512 14.0802 15.1895 14.0015 15.4902 13.7127L21.6777 7.76141C21.884 7.56449 22 7.28881 22 7C22 6.71119 21.884 6.43551 21.6777 6.23859L15.4902 0.287339C15.1895 -0.00147174 14.7512 -0.0802382 14.373 0.0860467C13.9949 0.252332 13.75 0.633037 13.75 1.04875V4.19941H1.375C0.614452 4.19941 0 4.82517 0 5.59971V8.40029C0 9.17483 0.614452 9.80059 1.375 9.80059H13.75V12.9513C13.75 13.3713 13.9949 13.7477 14.373 13.914Z" fill="url(#paint0_linear_6_108)"/>
<defs>
<linearGradient id="paint0_linear_6_108" x1="11" y1="0" x2="11" y2="14" gradientUnits="userSpaceOnUse">
<stop stop-color="#019AB9"/>
<stop offset="1" stop-color="#01C4D7"/>
</linearGradient>
</defs>
</svg>
