<svg width="22" height="14" viewBox="0 0 22 14" fill="none" xmlns="http://www.w3.org/2000/svg">
<path d="M7.62695 13.914C7.24883 14.0802 6.81055 14.0015 6.50977 13.7127L0.322266 7.76141C0.116016 7.56449 0 7.28881 0 7C0 6.71119 0.116016 6.43551 0.322266 6.23859L6.50977 0.287339C6.81055 -0.00147174 7.24883 -0.0802382 7.62695 0.0860467C8.00508 0.252332 8.25 0.633037 8.25 1.04875V4.19941H20.625C21.3855 4.19941 22 4.82517 22 5.59971V8.40029C22 9.17483 21.3855 9.80059 20.625 9.80059H8.25V12.9513C8.25 13.3713 8.00508 13.7477 7.62695 13.914Z" fill="url(#paint0_linear_6_97)"/>
<defs>
<linearGradient id="paint0_linear_6_97" x1="11" y1="0" x2="11" y2="14" gradientUnits="userSpaceOnUse">
<stop stop-color="#019AB9"/>
<stop offset="1" stop-color="#01C4D7"/>
</linearGradient>
</defs>
</svg>
