<svg width="67" height="61" viewBox="0 0 67 61" fill="none" xmlns="http://www.w3.org/2000/svg">
<path d="M65.0043 13.8997C66.0616 15.4089 66.2995 17.1165 65.718 19.0228L54.8147 55.0033C54.3125 56.6977 53.3014 58.1208 51.7816 59.2725C50.2617 60.4242 48.6427 61 46.9247 61H10.3293C8.29397 61 6.33138 60.2918 4.44147 58.8753C2.55157 57.4589 1.23657 55.7181 0.496466 53.653C-0.137907 51.8791 -0.164339 50.1979 0.417169 48.6094C0.417169 48.5035 0.456818 48.1461 0.536114 47.5371C0.615411 46.9282 0.668275 46.4384 0.694708 46.0677C0.72114 45.8559 0.681491 45.5713 0.575763 45.2139C0.470034 44.8564 0.430385 44.5983 0.456818 44.4395C0.509682 44.1482 0.615411 43.8702 0.774004 43.6055C0.932598 43.3407 1.15066 43.0296 1.4282 42.6722C1.70574 42.3148 1.92381 42.0037 2.0824 41.7389C2.69034 40.7329 3.28506 39.5216 3.86657 38.1051C4.44808 36.6887 4.84457 35.4774 5.05602 34.4714C5.13532 34.2066 5.14193 33.8095 5.07585 33.2799C5.00977 32.7504 5.00316 32.3798 5.05602 32.168C5.13532 31.8767 5.35999 31.5061 5.73004 31.056C6.1001 30.6059 6.32477 30.3014 6.40407 30.1426C6.95914 29.1895 7.51422 27.9716 8.0693 26.4889C8.62437 25.0063 8.95477 23.8149 9.0605 22.9147C9.08694 22.6764 9.0539 22.2528 8.96138 21.6439C8.86887 21.0349 8.87548 20.6643 8.98121 20.5319C9.08694 20.1877 9.37769 19.784 9.85347 19.3206C10.3293 18.8573 10.62 18.5595 10.7257 18.4271C11.2279 17.7387 11.7896 16.6201 12.4108 15.0713C13.0319 13.5225 13.3954 12.245 13.5011 11.2389C13.5275 11.0271 13.4879 10.6896 13.3822 10.2262C13.2764 9.76291 13.25 9.41211 13.3029 9.17383C13.3557 8.96202 13.4747 8.72374 13.6597 8.45898C13.8447 8.19423 14.0826 7.88976 14.3734 7.54557C14.6641 7.20139 14.8888 6.92339 15.0474 6.71159C15.2589 6.39388 15.4769 5.99013 15.7016 5.50033C15.9263 5.01053 16.1245 4.5472 16.2963 4.11035C16.4681 3.6735 16.6796 3.19694 16.9307 2.68066C17.1818 2.16439 17.4395 1.74078 17.7038 1.40983C17.9682 1.07888 18.3184 0.767795 18.7545 0.476562C19.1907 0.18533 19.6664 0.0330946 20.1819 0.0198568C20.6973 0.00661892 21.3251 0.0794271 22.0652 0.238281L22.0255 0.357422C23.0299 0.119141 23.704 0 24.0476 0H54.2199C56.1759 0 57.6826 0.74132 58.7399 2.22396C59.7971 3.7066 60.035 5.42752 59.4535 7.38672L48.5899 43.3672C47.6383 46.5178 46.6934 48.5498 45.755 49.4632C44.8167 50.3766 43.1184 50.8333 40.6602 50.8333H6.20582C5.49216 50.8333 4.98994 51.0319 4.69919 51.429C4.40843 51.8526 4.39522 52.4219 4.65954 53.1367C5.29391 54.99 7.19703 55.9167 10.3689 55.9167H46.9643C47.7308 55.9167 48.4709 55.7115 49.1846 55.3011C49.8983 54.8907 50.3608 54.3414 50.5723 53.653L62.4668 14.4557C62.6518 13.8733 62.7179 13.1187 62.665 12.1921C63.6695 12.5892 64.4492 13.1584 65.0043 13.8997ZM22.8185 13.9792C22.7127 14.3234 22.7392 14.6212 22.8978 14.8727C23.0564 15.1242 23.3207 15.25 23.6907 15.25H47.7969C48.1405 15.25 48.4775 15.1242 48.8079 14.8727C49.1384 14.6212 49.3564 14.3234 49.4621 13.9792L50.2948 11.4375C50.4005 11.0933 50.3741 10.7955 50.2155 10.5439C50.0569 10.2924 49.7925 10.1667 49.4225 10.1667H25.3163C24.9727 10.1667 24.6357 10.2924 24.3053 10.5439C23.9749 10.7955 23.7568 11.0933 23.6511 11.4375L22.8185 13.9792ZM19.5277 24.1458C19.4219 24.49 19.4484 24.7879 19.607 25.0394C19.7656 25.2909 20.0299 25.4167 20.3999 25.4167H44.5061C44.8497 25.4167 45.1867 25.2909 45.5171 25.0394C45.8475 24.7879 46.0656 24.49 46.1713 24.1458L47.0039 21.6042C47.1097 21.26 47.0832 20.9621 46.9247 20.7106C46.7661 20.4591 46.5017 20.3333 46.1317 20.3333H22.0255C21.6819 20.3333 21.3449 20.4591 21.0145 20.7106C20.6841 20.9621 20.466 21.26 20.3603 21.6042L19.5277 24.1458Z" fill="url(#paint0_linear_5_46)"/>
<defs>
<linearGradient id="paint0_linear_5_46" x1="33.0137" y1="0" x2="33.0137" y2="61" gradientUnits="userSpaceOnUse">
<stop stop-color="#019AB9"/>
<stop offset="1" stop-color="#01C4D7"/>
</linearGradient>
</defs>
</svg>
