<svg width="66" height="61" viewBox="0 0 66 61" fill="none" xmlns="http://www.w3.org/2000/svg">
<path fill-rule="evenodd" clip-rule="evenodd" d="M6.08626 6.38893C9.58999 2.71224 14.2294 0.469922 19.1686 0.0659641C24.1078 -0.337994 29.022 1.12297 33.026 4.18563C37.2558 0.973126 42.4823 -0.451051 47.6667 0.196178C52.851 0.843407 57.6135 3.51465 61.0076 7.67896C64.4017 11.8433 66.1788 17.1957 65.9858 22.6724C65.7927 28.1491 63.6437 33.3491 59.9657 37.2387L40.3722 57.8065C38.4237 59.8513 35.7812 61 33.026 61C30.2707 61 27.6283 59.8513 25.6797 57.8065L6.08626 37.2424C2.18928 33.1513 0 27.6029 0 21.8175C0 16.0321 2.18928 10.48 6.08626 6.38893Z" fill="url(#paint0_linear_5_44)"/>
<defs>
<linearGradient id="paint0_linear_5_44" x1="33" y1="0" x2="33" y2="61" gradientUnits="userSpaceOnUse">
<stop stop-color="#019AB9"/>
<stop offset="1" stop-color="#01C4D7"/>
</linearGradient>
</defs>
</svg>
