<svg width="20" height="18" viewBox="0 0 20 18" fill="none" xmlns="http://www.w3.org/2000/svg">
<path fill-rule="evenodd" clip-rule="evenodd" d="M2.24512 2.1968C3.25467 1.13742 4.59145 0.491328 6.01461 0.374933C7.43777 0.258538 8.85374 0.679493 10.0074 1.56196C11.2262 0.636319 12.7321 0.225963 14.2259 0.412452C15.7197 0.598942 17.092 1.36862 18.0699 2.56851C19.0479 3.76839 19.5599 5.31062 19.5043 6.88866C19.4487 8.46669 18.8295 9.96499 17.7697 11.0857L12.1241 17.012C11.5627 17.6012 10.8013 17.9322 10.0074 17.9322C9.21353 17.9322 8.45214 17.6012 7.8907 17.012L2.24512 11.0868C1.12226 9.908 0.491455 8.30929 0.491455 6.64231C0.491455 4.97533 1.12226 3.37558 2.24512 2.1968Z" fill="url(#paint0_linear_6_232)"/>
<defs>
<linearGradient id="paint0_linear_6_232" x1="9.99993" y1="0.355927" x2="9.99993" y2="17.9322" gradientUnits="userSpaceOnUse">
<stop stop-color="#BBBBBB"/>
<stop offset="1" stop-color="#DDDDDD"/>
</linearGradient>
</defs>
</svg>
