<svg width="17" height="16" viewBox="0 0 17 16" fill="none" xmlns="http://www.w3.org/2000/svg">
<path d="M0.492105 10.0382C0.170094 9.42236 0 8.71774 0 7.99962C0 7.28151 0.170094 6.57689 0.492105 5.96107C0.591125 5.77149 0.723624 5.60777 0.881087 5.48044C1.03855 5.3531 1.2175 5.26497 1.40642 5.22169L2.96527 4.86363C3.05824 4.84251 3.14208 4.78547 3.20283 4.70202L5.10696 2.07936C6.1953 0.579489 6.74039 -0.16939 7.22564 0.0323534C7.71272 0.234096 7.71272 1.21007 7.71272 3.16201V12.8393C7.71272 14.7902 7.71272 15.7651 7.22656 15.9679C6.74131 16.1686 6.19622 15.4198 5.10788 13.9209L3.20099 11.2972C3.14048 11.214 3.05698 11.157 2.96435 11.1356L1.4055 10.7776C1.21657 10.7343 1.03763 10.6461 0.880166 10.5188C0.722703 10.3915 0.591125 10.2278 0.492105 10.0382Z" fill="url(#paint0_linear_5_48)"/>
<path d="M10.0479 4.26471C10.9069 5.25018 11.3916 6.58526 11.3963 7.97894C11.401 9.37262 10.9252 10.7119 10.0727 11.7049M13.8423 2.02441C15.2169 3.60104 15.9924 5.737 16 7.96679C16.0076 10.1966 15.2466 12.3394 13.8828 13.9283" stroke="url(#paint1_linear_5_48)" stroke-width="2" stroke-linecap="round"/>
<defs>
<linearGradient id="paint0_linear_5_48" x1="3.85636" y1="0" x2="3.85636" y2="16" gradientUnits="userSpaceOnUse">
<stop stop-color="#019AB9"/>
<stop offset="1" stop-color="#01C4D7"/>
</linearGradient>
<linearGradient id="paint1_linear_5_48" x1="13.024" y1="2.02441" x2="13.024" y2="13.9283" gradientUnits="userSpaceOnUse">
<stop stop-color="#019AB9"/>
<stop offset="1" stop-color="#01C4D7"/>
</linearGradient>
</defs>
</svg>
