<svg width="17" height="16" viewBox="0 0 17 16" fill="none" xmlns="http://www.w3.org/2000/svg">
<path d="M0.463157 10.0382C0.160088 9.42236 0 8.71774 0 7.99962C0 7.28151 0.160088 6.57689 0.463157 5.96107C0.556353 5.77149 0.681058 5.60777 0.829259 5.48044C0.97746 5.3531 1.14588 5.26497 1.32369 5.22169L2.79084 4.86363C2.87834 4.84251 2.95726 4.78547 3.01443 4.70202L4.80655 2.07936C5.83087 0.579489 6.3439 -0.16939 6.8006 0.0323534C7.25903 0.234096 7.25903 1.21007 7.25903 3.16201V12.8393C7.25903 14.7902 7.25903 15.7651 6.80147 15.9679C6.34477 16.1686 5.83174 15.4198 4.80742 13.9209L3.01269 11.2972C2.95574 11.214 2.87716 11.157 2.78998 11.1356L1.32282 10.7776C1.14501 10.7343 0.976593 10.6461 0.828392 10.5188C0.680191 10.3915 0.556353 10.2278 0.463157 10.0382Z" fill="url(#paint0_linear_5_61)"/>
<path d="M9.45679 2.02441L12.7284 7.97637M16 13.9283L12.7284 7.97637M12.7284 7.97637L9.45679 13.9283M12.7284 7.97637L16 2.02441" stroke="url(#paint1_linear_5_61)" stroke-width="2" stroke-linecap="round"/>
<defs>
<linearGradient id="paint0_linear_5_61" x1="3.62951" y1="0" x2="3.62951" y2="16" gradientUnits="userSpaceOnUse">
<stop stop-color="#B90101"/>
<stop offset="1" stop-color="#D70101"/>
</linearGradient>
<linearGradient id="paint1_linear_5_61" x1="12.2578" y1="2.02441" x2="12.2578" y2="13.9283" gradientUnits="userSpaceOnUse">
<stop stop-color="#B90101"/>
<stop offset="1" stop-color="#D70101"/>
</linearGradient>
</defs>
</svg>
